<?xml version="1.0" standalone="no"?><svg xmlns="http://www.w3.org/2000/svg" viewBox="0 0 1440 320"><path fill="#FAF8F6" fill-opacity="1" d="M0,256L34.3,224C68.6,192,137,128,206,128C274.3,128,343,192,411,186.7C480,181,549,107,617,80C685.7,53,754,75,823,117.3C891.4,160,960,224,1029,218.7C1097.1,213,1166,139,1234,101.3C1302.9,64,1371,64,1406,64L1440,64L1440,320L1405.7,320C1371.4,320,1303,320,1234,320C1165.7,320,1097,320,1029,320C960,320,891,320,823,320C754.3,320,686,320,617,320C548.6,320,480,320,411,320C342.9,320,274,320,206,320C137.1,320,69,320,34,320L0,320Z"></path></svg>